<svg id="Layer_1" data-name="Layer 1" xmlns="http://www.w3.org/2000/svg" viewBox="0 0 1024 248">
  <defs>
    <style>
      .cls-1 {
        fill: #0a78f0;
      }

      .cls-2 {
        fill: #00a9f4;
      }
    </style>
  </defs>
  <title>Passona_Black-01</title>
  <g>
    <path d="M50.877,126.512H30.247V168.94H6.5V52.163H50.877c28.026,0,40.482,17.128,40.482,37.173C91.359,109.577,78.9,126.512,50.877,126.512ZM46.984,69.1H30.247v40.48H46.984c15.375,0,20.826-9.146,20.826-20.24C67.81,78.438,62.36,69.1,46.984,69.1Z"/>
    <path d="M218.632,168.94l-11.871-28.806H159.469L147.594,168.94H124.628L174.257,52.163h18.49l49.63,116.777ZM183.21,81.164l-17.321,42.429h34.449Z"/>
    <path d="M330.335,171.274c-19.463,0-33.476-7.591-41.456-14.6l5.449-18.683c7.785,7.4,20.046,15.763,36.006,15.763,11.677,0,20.631-5.839,20.631-16.154,0-9.729-5.451-14.792-24.523-19.462-24.524-6.034-34.255-19.074-34.255-35.811,0-19.074,15.181-32.894,40.288-32.894,14.4,0,27.248,5.451,35.032,11.485l-5.06,16.542c-8.173-5.448-19.852-10.12-30.166-10.12-11.483,0-18.3,5.06-18.3,13.43,0,6.81,4.086,12.068,20.046,15.959,27.247,6.813,38.926,18.3,38.926,38.538C372.959,160.375,352.328,171.274,330.335,171.274Z"/>
    <path d="M465.977,171.274c-19.463,0-33.476-7.591-41.456-14.6l5.449-18.683c7.785,7.4,20.046,15.763,36.006,15.763,11.677,0,20.631-5.839,20.631-16.154,0-9.729-5.451-14.792-24.523-19.462-24.524-6.034-34.255-19.074-34.255-35.811,0-19.074,15.181-32.894,40.288-32.894,14.4,0,27.248,5.451,35.032,11.485l-5.06,16.542c-8.173-5.448-19.852-10.12-30.166-10.12-11.483,0-18.3,5.06-18.3,13.43,0,6.81,4.086,12.068,20.046,15.959,27.247,6.813,38.926,18.3,38.926,38.538C508.6,160.375,487.969,171.274,465.977,171.274Z"/>
    <path d="M625.169,172.248c-35.812,0-63.644-25.886-63.644-61.7s27.832-61.695,63.644-61.695c35.616,0,63.059,25.884,63.059,61.7S660.786,172.248,625.169,172.248Zm0-104.514c-23.356,0-38.732,17.516-38.732,42.816s15.377,42.82,38.732,42.82c22.966,0,38.147-17.519,38.147-42.819S648.136,67.734,625.169,67.734Z"/>
    <path d="M829.705,168.94,768.591,91.865V168.94H747.38V52.163h16.542l61.114,77.073V52.163h21.212V168.94Z"/>
    <path d="M993.759,168.94l-11.87-28.806h-47.3L922.721,168.94H899.757L949.386,52.163h18.483L1017.5,168.94Zm-35.42-87.776-17.323,42.428h34.453Z"/>
    <g>
      <path d="M562.269,231.145l-.869-4.11h-.211a12.114,12.114,0,0,1-4.309,3.673,13.078,13.078,0,0,1-5.359.964,9.628,9.628,0,0,1-6.729-2.213,8.071,8.071,0,0,1-2.439-6.3q0-8.745,13.99-9.168l4.9-.158v-1.792q0-3.4-1.464-5.017c-.971-1.084-2.533-1.622-4.674-1.622a19.056,19.056,0,0,0-8.167,2.213l-1.344-3.346a20.6,20.6,0,0,1,4.678-1.818,20.18,20.18,0,0,1,5.1-.659q5.166,0,7.655,2.292t2.488,7.35v19.707Zm-9.88-3.082a8.885,8.885,0,0,0,6.417-2.239,8.3,8.3,0,0,0,2.33-6.27v-2.608l-4.373.184q-5.216.186-7.524,1.618a4.892,4.892,0,0,0-2.3,4.467,4.5,4.5,0,0,0,1.438,3.609,5.96,5.96,0,0,0,4.009,1.238Z"/>
      <path d="M619.936,211.517q0,9.536-5.179,14.584t-14.9,5.043h-10.67V192.627h11.8q8.982,0,13.963,4.979T619.936,211.517Zm-4.742.158q0-7.538-3.779-11.355t-11.238-3.82h-6.508v30.772h5.454q8.012,0,12.04-3.941T615.194,211.675Z"/>
      <path d="M627.5,194.445a2.906,2.906,0,0,1,.738-2.2,2.735,2.735,0,0,1,3.662.015,2.86,2.86,0,0,1,.764,2.187,2.911,2.911,0,0,1-.764,2.2,2.68,2.68,0,0,1-3.662,0A2.964,2.964,0,0,1,627.5,194.445Zm4.742,36.7h-4.37V202.27h4.373Z"/>
      <path d="M665.146,202.27v2.766l-5.348.632a9.4,9.4,0,0,1,1.9,5.77,8.543,8.543,0,0,1-2.9,6.771q-2.9,2.529-7.956,2.529a13.311,13.311,0,0,1-2.424-.211q-2.795,1.473-2.793,3.715A1.891,1.891,0,0,0,646.6,226a7.149,7.149,0,0,0,3.346.565h5.111q4.69,0,7.2,1.976a6.865,6.865,0,0,1,2.518,5.743,8.207,8.207,0,0,1-3.846,7.313q-3.845,2.513-11.223,2.514-5.663,0-8.736-2.108a6.809,6.809,0,0,1-3.067-5.954,6.683,6.683,0,0,1,1.686-4.558,8.58,8.58,0,0,1,4.742-2.608,4.54,4.54,0,0,1-1.855-1.554,4.1,4.1,0,0,1-.753-2.45,4.657,4.657,0,0,1,.843-2.766,8.846,8.846,0,0,1,2.661-2.292,7.772,7.772,0,0,1-3.647-3.135,9.2,9.2,0,0,1-1.411-5.058,9.35,9.35,0,0,1,2.845-7.313q2.845-2.564,8.062-2.567a14.711,14.711,0,0,1,4.084.527Zm-23.027,33.722a3.923,3.923,0,0,0,1.976,3.557,10.905,10.905,0,0,0,5.664,1.212q5.5,0,8.156-1.645a5.052,5.052,0,0,0,2.646-4.467,3.54,3.54,0,0,0-1.449-3.256q-1.451-.9-5.454-.907h-5.243a6.908,6.908,0,0,0-4.637,1.423A5.085,5.085,0,0,0,642.119,235.992Zm2.371-24.475A5.881,5.881,0,0,0,646.2,216.1a6.845,6.845,0,0,0,4.769,1.554q6.4,0,6.4-6.218,0-6.508-6.481-6.507a6.416,6.416,0,0,0-4.742,1.66A6.682,6.682,0,0,0,644.49,211.517Z"/>
      <path d="M670.705,194.445a2.906,2.906,0,0,1,.738-2.2,2.735,2.735,0,0,1,3.662.015,2.86,2.86,0,0,1,.764,2.187,2.911,2.911,0,0,1-.764,2.2,2.68,2.68,0,0,1-3.662,0A2.964,2.964,0,0,1,670.705,194.445Zm4.742,36.7h-4.378V202.27h4.373Z"/>
      <path d="M694.047,228.062a14.466,14.466,0,0,0,2.239-.169,14.7,14.7,0,0,0,1.712-.358v3.346a7.875,7.875,0,0,1-2.093.565,15.654,15.654,0,0,1-2.492.226q-8.378,0-8.378-8.826V205.668H680.9V203.56l4.136-1.818,1.844-6.165h2.529v6.692h8.378v3.4h-8.378v16.993a5.851,5.851,0,0,0,1.238,4A4.31,4.31,0,0,0,694.047,228.062Z"/>
      <path d="M728.692,216.681q0,7.063-3.557,11.024t-9.827,3.967a13.015,13.015,0,0,1-6.876-1.818,11.984,11.984,0,0,1-4.637-5.216,18.194,18.194,0,0,1-1.633-7.956q0-7.063,3.53-11t9.8-3.937a12.223,12.223,0,0,1,9.631,4.031Q728.691,209.8,728.692,216.681Zm-22,0q0,5.533,2.213,8.431a8.779,8.779,0,0,0,13.026.011q2.23-2.878,2.228-8.442,0-5.5-2.228-8.367a7.819,7.819,0,0,0-6.571-2.857,7.7,7.7,0,0,0-6.481,2.819q-2.184,2.818-2.186,8.405Z"/>
      <path d="M756.117,231.145v-18.68a7.53,7.53,0,0,0-1.607-5.269q-1.61-1.738-5.032-1.739-4.533,0-6.639,2.45T740.732,216v15.149h-4.373V202.27h3.557l.711,3.952h.211a8.924,8.924,0,0,1,3.767-3.3,12.23,12.23,0,0,1,5.4-1.174q5.215,0,7.851,2.514t2.635,8.051V231.15Z"/>
      <path d="M769.106,194.445a2.906,2.906,0,0,1,.738-2.2,2.735,2.735,0,0,1,3.662.015,2.86,2.86,0,0,1,.764,2.187,2.911,2.911,0,0,1-.764,2.2,2.68,2.68,0,0,1-3.662,0A2.964,2.964,0,0,1,769.106,194.445Zm4.742,36.7h-4.373V202.27h4.373Z"/>
      <path d="M794.661,231.672q-6.271,0-9.71-3.862t-3.436-10.918q0-7.244,3.489-11.2t9.947-3.952a19.815,19.815,0,0,1,4.163.448,13.689,13.689,0,0,1,3.267,1.054l-1.344,3.715a20.622,20.622,0,0,0-3.161-.964,14.248,14.248,0,0,0-3.03-.38q-8.8,0-8.8,11.223,0,5.323,2.149,8.167a7.464,7.464,0,0,0,6.361,2.845,19.488,19.488,0,0,0,7.4-1.554v3.873A15.771,15.771,0,0,1,794.661,231.672Z"/>
      <path d="M847.906,203.85q0,5.849-3.99,9T832.494,216h-4.531v15.149h-4.479V192.627h9.985Q847.9,192.627,847.906,203.85Zm-19.944,8.3h4.031q5.957,0,8.615-1.923t2.661-6.165a6.644,6.644,0,0,0-2.5-5.691q-2.5-1.869-7.8-1.871h-5.006Z"/>
      <path d="M868.482,201.743a17.083,17.083,0,0,1,3.451.316l-.606,4.057a14.894,14.894,0,0,0-3.161-.4,7.684,7.684,0,0,0-5.992,2.845,10.361,10.361,0,0,0-2.492,7.087v15.491h-4.373V202.27h3.609l.5,5.348h.211a12.749,12.749,0,0,1,3.873-4.347A8.7,8.7,0,0,1,868.482,201.743Z"/>
      <path d="M902.257,216.681q0,7.063-3.557,11.024t-9.827,3.967A13.015,13.015,0,0,1,882,229.854a11.984,11.984,0,0,1-4.637-5.216,18.194,18.194,0,0,1-1.633-7.956q0-7.063,3.53-11t9.8-3.937a12.223,12.223,0,0,1,9.631,4.031Q902.257,209.8,902.257,216.681Zm-22,0q0,5.533,2.213,8.431a8.779,8.779,0,0,0,13.026.011q2.231-2.878,2.228-8.442,0-5.5-2.228-8.367a7.819,7.819,0,0,0-6.571-2.857,7.7,7.7,0,0,0-6.481,2.819q-2.182,2.818-2.185,8.405Z"/>
      <path d="M929.578,227.272h-.237q-3.031,4.4-9.063,4.4a10.716,10.716,0,0,1-8.809-3.872q-3.15-3.873-3.15-11.013T911.48,205.7a10.638,10.638,0,0,1,8.8-3.952,10.5,10.5,0,0,1,9.01,4.268h.342l-.184-2.081-.105-2.029v-11.75h4.373v40.994h-3.557Zm-8.747.738q4.478,0,6.5-2.435t2.014-7.866v-.922q0-6.137-2.044-8.758t-6.522-2.629a6.688,6.688,0,0,0-5.886,2.992q-2.045,2.987-2.044,8.442,0,5.534,2.029,8.352a6.874,6.874,0,0,0,5.953,2.823Z"/>
      <path d="M947.1,202.27V221a7.53,7.53,0,0,0,1.607,5.269q1.609,1.738,5.032,1.739,4.533,0,6.624-2.477t2.1-8.088V202.27h4.373v28.875h-3.609l-.632-3.873h-.237a8.721,8.721,0,0,1-3.73,3.267,12.5,12.5,0,0,1-5.439,1.133q-5.266,0-7.892-2.5t-2.626-8.012V202.27Z"/>
      <path d="M987.644,231.672q-6.272,0-9.71-3.862T974.5,216.892q0-7.244,3.489-11.2t9.947-3.952a19.815,19.815,0,0,1,4.163.448,13.689,13.689,0,0,1,3.267,1.054l-1.344,3.715a20.622,20.622,0,0,0-3.161-.964,14.248,14.248,0,0,0-3.03-.38q-8.8,0-8.8,11.223,0,5.323,2.149,8.167a7.464,7.464,0,0,0,6.361,2.845,19.488,19.488,0,0,0,7.4-1.554v3.873A15.771,15.771,0,0,1,987.644,231.672Z"/>
      <path d="M1011.118,228.062a14.466,14.466,0,0,0,2.239-.169,14.7,14.7,0,0,0,1.712-.358v3.346a7.875,7.875,0,0,1-2.093.565,15.654,15.654,0,0,1-2.492.226q-8.378,0-8.378-8.826V205.668h-4.137V203.56l4.136-1.818,1.844-6.165h2.529v6.692h8.378v3.4h-8.378v16.993a5.851,5.851,0,0,0,1.238,4A4.309,4.309,0,0,0,1011.118,228.062Z"/>
    </g>
    <circle class="cls-1" cx="466.561" cy="16.056" r="12.163"/>
    <circle class="cls-1" cx="796.813" cy="16.056" r="12.163"/>
    <circle class="cls-2" cx="958.629" cy="16.056" r="12.163"/>
  </g>
</svg>
